<svg aria-hidden="true" style="position: absolute; width: 0; height: 0; overflow: hidden;" version="1.1" xmlns="http://www.w3.org/2000/svg" xmlns:xlink="http://www.w3.org/1999/xlink">
<defs>
<symbol id="icon-x" viewBox="0 0 32 32">
<path d="M30 24.398l-8.406-8.398 8.406-8.398-5.602-5.602-8.398 8.402-8.402-8.402-5.598 5.602 8.398 8.398-8.398 8.398 5.598 5.602 8.402-8.402 8.398 8.402z"></path>
</symbol>
<symbol id="icon-phone" viewBox="0 0 32 32">
<path d="M22 20c-2 2-2 4-4 4s-4-2-6-4-4-4-4-6 2-2 4-4-4-8-6-8-6 6-6 6c0 4 4.109 12.109 8 16s12 8 16 8c0 0 6-4 6-6s-6-8-8-6z"></path>
</symbol>
<symbol id="icon-map2" viewBox="0 0 32 32">
<path d="M21 6l-10-4-11 4v24l11-4 10 4 11-4v-24l-11 4zM12 4.554l8 3.2v19.692l-8-3.2v-19.692zM2 7.401l8-2.909v19.744l-8 2.909v-19.744zM30 24.599l-8 2.909v-19.744l8-2.909v19.744z"></path>
</symbol>
<symbol id="icon-menu" viewBox="0 0 32 32">
<path d="M2 6h28v6h-28zM2 14h28v6h-28zM2 22h28v6h-28z"></path>
</symbol>
<symbol id="icon-heart" viewBox="0 0 32 32">
<path d="M23.6 2c-3.363 0-6.258 2.736-7.599 5.594-1.342-2.858-4.237-5.594-7.601-5.594-4.637 0-8.4 3.764-8.4 8.401 0 9.433 9.516 11.906 16.001 21.232 6.13-9.268 15.999-12.1 15.999-21.232 0-4.637-3.763-8.401-8.4-8.401z"></path>
</symbol>
<symbol id="icon-facebook" viewBox="0 0 32 32">
<path d="M19 6h5v-6h-5c-3.86 0-7 3.14-7 7v3h-4v6h4v16h6v-16h5l1-6h-6v-3c0-0.542 0.458-1 1-1z"></path>
</symbol>
<symbol id="icon-twitter" viewBox="0 0 32 32">
<path d="M32 7.075c-1.175 0.525-2.444 0.875-3.769 1.031 1.356-0.813 2.394-2.1 2.887-3.631-1.269 0.75-2.675 1.3-4.169 1.594-1.2-1.275-2.906-2.069-4.794-2.069-3.625 0-6.563 2.938-6.563 6.563 0 0.512 0.056 1.012 0.169 1.494-5.456-0.275-10.294-2.888-13.531-6.862-0.563 0.969-0.887 2.1-0.887 3.3 0 2.275 1.156 4.287 2.919 5.463-1.075-0.031-2.087-0.331-2.975-0.819 0 0.025 0 0.056 0 0.081 0 3.181 2.263 5.838 5.269 6.437-0.55 0.15-1.131 0.231-1.731 0.231-0.425 0-0.831-0.044-1.237-0.119 0.838 2.606 3.263 4.506 6.131 4.563-2.25 1.762-5.075 2.813-8.156 2.813-0.531 0-1.050-0.031-1.569-0.094 2.913 1.869 6.362 2.95 10.069 2.95 12.075 0 18.681-10.006 18.681-18.681 0-0.287-0.006-0.569-0.019-0.85 1.281-0.919 2.394-2.075 3.275-3.394z"></path>
</symbol>
<symbol id="icon-pedal_bike" viewBox="0 0 24 24">
<path d="M18.188 9.984l-1.688-4.688q-0.234-0.563-0.75-0.938t-1.172-0.375h-2.578v2.016h2.578l1.5 3.984h-4.828l-0.375-0.984h1.125v-2.016h-5.016v2.016h1.781l1.781 5.016h-0.656q-0.188-1.125-0.867-2.016t-1.641-1.406-2.133-0.563q-1.406-0.094-2.602 0.586t-1.922 1.828-0.727 2.555 0.656 2.531 1.805 1.805 2.555 0.68q1.219 0 2.25-0.516t1.711-1.43 0.914-2.086h4.219q0.188 1.125 0.867 2.016t1.641 1.406 2.133 0.563q1.406 0.094 2.602-0.586t1.922-1.828 0.727-2.555-0.656-2.531-1.805-1.805-2.555-0.68h-0.797zM7.828 15.984q-0.328 0.891-1.078 1.453t-1.734 0.563q-0.844 0-1.523-0.398t-1.078-1.078-0.398-1.523 0.398-1.523 1.078-1.078 1.523-0.398q0.984 0 1.734 0.563t1.078 1.453h-2.813v1.969h2.813zM14.109 14.016h-1.406l-0.75-2.016h3.047q-0.328 0.422-0.563 0.938t-0.328 1.078zM18.984 18q-0.844 0-1.523-0.398t-1.078-1.078-0.398-1.523q0-0.703 0.281-1.289t0.797-1.008l0.938 2.672 1.875-0.703-0.938-2.672h0.094q0.797 0 1.477 0.398t1.102 1.078 0.422 1.523-0.422 1.523-1.102 1.078-1.523 0.398z"></path>
</symbol>
<symbol id="icon-cogs" viewBox="0 0 26 24">
<path d="M12 12c0-1.888-1.54-3.429-3.429-3.429s-3.429 1.54-3.429 3.429 1.54 3.429 3.429 3.429 3.429-1.54 3.429-3.429zM22.286 18.857c0-0.938-0.777-1.714-1.714-1.714s-1.714 0.777-1.714 1.714c0 0.951 0.777 1.714 1.714 1.714 0.951 0 1.714-0.777 1.714-1.714zM22.286 5.143c0-0.938-0.777-1.714-1.714-1.714s-1.714 0.777-1.714 1.714c0 0.951 0.777 1.714 1.714 1.714 0.951 0 1.714-0.777 1.714-1.714zM17.143 10.781v2.478c0 0.174-0.134 0.375-0.308 0.402l-2.076 0.321c-0.107 0.348-0.254 0.683-0.429 1.018 0.375 0.536 0.777 1.031 1.205 1.54 0.054 0.080 0.094 0.161 0.094 0.268 0 0.094-0.027 0.188-0.094 0.254-0.268 0.362-1.768 1.996-2.156 1.996-0.107 0-0.201-0.040-0.281-0.094l-1.54-1.205c-0.335 0.174-0.67 0.308-1.031 0.415-0.067 0.683-0.134 1.42-0.308 2.076-0.054 0.188-0.214 0.321-0.402 0.321h-2.491c-0.188 0-0.375-0.147-0.402-0.335l-0.308-2.049c-0.348-0.107-0.683-0.254-1.004-0.415l-1.58 1.192c-0.067 0.067-0.174 0.094-0.268 0.094-0.107 0-0.201-0.040-0.281-0.107-0.348-0.321-1.929-1.754-1.929-2.143 0-0.094 0.040-0.174 0.094-0.254 0.388-0.509 0.79-1.004 1.179-1.527-0.188-0.362-0.348-0.723-0.469-1.098l-2.036-0.321c-0.188-0.027-0.321-0.201-0.321-0.388v-2.478c0-0.174 0.134-0.375 0.308-0.402l2.076-0.321c0.107-0.348 0.254-0.683 0.429-1.018-0.375-0.536-0.777-1.031-1.205-1.54-0.054-0.080-0.094-0.174-0.094-0.268s0.027-0.188 0.094-0.268c0.268-0.362 1.768-1.982 2.156-1.982 0.107 0 0.201 0.040 0.281 0.094l1.54 1.205c0.335-0.174 0.67-0.308 1.031-0.429 0.067-0.67 0.134-1.406 0.308-2.063 0.054-0.188 0.214-0.321 0.402-0.321h2.491c0.188 0 0.375 0.147 0.402 0.335l0.308 2.049c0.348 0.107 0.683 0.254 1.004 0.415l1.58-1.192c0.080-0.067 0.174-0.094 0.268-0.094 0.107 0 0.201 0.040 0.281 0.107 0.348 0.321 1.929 1.768 1.929 2.143 0 0.094-0.040 0.174-0.094 0.254-0.388 0.522-0.79 1.004-1.165 1.527 0.174 0.362 0.335 0.723 0.455 1.098l2.036 0.308c0.188 0.040 0.321 0.214 0.321 0.402zM25.714 17.92v1.875c0 0.201-1.728 0.388-1.996 0.415-0.107 0.254-0.241 0.482-0.402 0.696 0.121 0.268 0.683 1.607 0.683 1.848 0 0.040-0.013 0.067-0.054 0.094-0.161 0.094-1.594 0.951-1.661 0.951-0.174 0-1.179-1.339-1.313-1.54-0.134 0.013-0.268 0.027-0.402 0.027s-0.268-0.013-0.402-0.027c-0.134 0.201-1.138 1.54-1.313 1.54-0.067 0-1.5-0.857-1.661-0.951-0.040-0.027-0.054-0.067-0.054-0.094 0-0.228 0.563-1.58 0.683-1.848-0.161-0.214-0.295-0.442-0.402-0.696-0.268-0.027-1.996-0.214-1.996-0.415v-1.875c0-0.201 1.728-0.388 1.996-0.415 0.107-0.241 0.241-0.482 0.402-0.696-0.121-0.268-0.683-1.621-0.683-1.848 0-0.027 0.013-0.067 0.054-0.094 0.161-0.080 1.594-0.938 1.661-0.938 0.174 0 1.179 1.326 1.313 1.527 0.134-0.013 0.268-0.027 0.402-0.027s0.268 0.013 0.402 0.027c0.375-0.522 0.777-1.045 1.232-1.5l0.080-0.027c0.067 0 1.5 0.844 1.661 0.938 0.040 0.027 0.054 0.067 0.054 0.094 0 0.241-0.563 1.58-0.683 1.848 0.161 0.214 0.295 0.455 0.402 0.696 0.268 0.027 1.996 0.214 1.996 0.415zM25.714 4.205v1.875c0 0.201-1.728 0.388-1.996 0.415-0.107 0.254-0.241 0.482-0.402 0.696 0.121 0.268 0.683 1.607 0.683 1.848 0 0.040-0.013 0.067-0.054 0.094-0.161 0.094-1.594 0.951-1.661 0.951-0.174 0-1.179-1.339-1.313-1.54-0.134 0.013-0.268 0.027-0.402 0.027s-0.268-0.013-0.402-0.027c-0.134 0.201-1.138 1.54-1.313 1.54-0.067 0-1.5-0.857-1.661-0.951-0.040-0.027-0.054-0.067-0.054-0.094 0-0.228 0.563-1.58 0.683-1.848-0.161-0.214-0.295-0.442-0.402-0.696-0.268-0.027-1.996-0.214-1.996-0.415v-1.875c0-0.201 1.728-0.388 1.996-0.415 0.107-0.241 0.241-0.482 0.402-0.696-0.121-0.268-0.683-1.621-0.683-1.848 0-0.027 0.013-0.067 0.054-0.094 0.161-0.080 1.594-0.938 1.661-0.938 0.174 0 1.179 1.326 1.313 1.527 0.134-0.013 0.268-0.027 0.402-0.027s0.268 0.013 0.402 0.027c0.375-0.522 0.777-1.045 1.232-1.5l0.080-0.027c0.067 0 1.5 0.844 1.661 0.938 0.040 0.027 0.054 0.067 0.054 0.094 0 0.241-0.563 1.58-0.683 1.848 0.161 0.214 0.295 0.455 0.402 0.696 0.268 0.027 1.996 0.214 1.996 0.415z"></path>
</symbol>
<!-- <symbol id="icon-diamond" viewBox="0 0 27 24">
<path d="M2.839 10.286l8.344 8.906-4.018-8.906h-4.326zM13.714 20.625l4.674-10.339h-9.348zM7.205 8.571l2.732-5.143h-3.509l-3.857 5.143h4.634zM16.246 19.192l8.344-8.906h-4.326zM9.147 8.571h9.134l-2.732-5.143h-3.67zM20.223 8.571h4.634l-3.857-5.143h-3.509zM22.112 2.063l5.143 6.857c0.254 0.321 0.228 0.79-0.054 1.098l-12.857 13.714c-0.161 0.174-0.388 0.268-0.629 0.268s-0.469-0.094-0.629-0.268l-12.857-13.714c-0.281-0.308-0.308-0.777-0.054-1.098l5.143-6.857c0.161-0.228 0.415-0.348 0.683-0.348h15.429c0.268 0 0.522 0.121 0.683 0.348z"></path>
</symbol> -->
<symbol id="icon-viacoin" viewBox="0 0 24 28">
<path d="M24 0l-3 7h3v3h-4.281l-0.859 2h5.141v3h-6.422l-5.578 13-5.578-13h-6.422v-3h5.141l-0.859-2h-4.281v-3h3l-3-7h4l5.047 12h5.906l5.047-12h4zM12 19l1.687-4h-3.375z"></path>
</symbol>
<symbol id="icon-cogs" viewBox="0 0 30 28">
<path d="M14 14c0-2.203-1.797-4-4-4s-4 1.797-4 4 1.797 4 4 4 4-1.797 4-4zM26 22c0-1.094-0.906-2-2-2s-2 0.906-2 2c0 1.109 0.906 2 2 2 1.109 0 2-0.906 2-2zM26 6c0-1.094-0.906-2-2-2s-2 0.906-2 2c0 1.109 0.906 2 2 2 1.109 0 2-0.906 2-2zM20 12.578v2.891c0 0.203-0.156 0.438-0.359 0.469l-2.422 0.375c-0.125 0.406-0.297 0.797-0.5 1.188 0.438 0.625 0.906 1.203 1.406 1.797 0.063 0.094 0.109 0.187 0.109 0.313 0 0.109-0.031 0.219-0.109 0.297-0.313 0.422-2.063 2.328-2.516 2.328-0.125 0-0.234-0.047-0.328-0.109l-1.797-1.406c-0.391 0.203-0.781 0.359-1.203 0.484-0.078 0.797-0.156 1.656-0.359 2.422-0.063 0.219-0.25 0.375-0.469 0.375h-2.906c-0.219 0-0.438-0.172-0.469-0.391l-0.359-2.391c-0.406-0.125-0.797-0.297-1.172-0.484l-1.844 1.391c-0.078 0.078-0.203 0.109-0.313 0.109-0.125 0-0.234-0.047-0.328-0.125-0.406-0.375-2.25-2.047-2.25-2.5 0-0.109 0.047-0.203 0.109-0.297 0.453-0.594 0.922-1.172 1.375-1.781-0.219-0.422-0.406-0.844-0.547-1.281l-2.375-0.375c-0.219-0.031-0.375-0.234-0.375-0.453v-2.891c0-0.203 0.156-0.438 0.359-0.469l2.422-0.375c0.125-0.406 0.297-0.797 0.5-1.188-0.438-0.625-0.906-1.203-1.406-1.797-0.063-0.094-0.109-0.203-0.109-0.313s0.031-0.219 0.109-0.313c0.313-0.422 2.063-2.312 2.516-2.312 0.125 0 0.234 0.047 0.328 0.109l1.797 1.406c0.391-0.203 0.781-0.359 1.203-0.5 0.078-0.781 0.156-1.641 0.359-2.406 0.063-0.219 0.25-0.375 0.469-0.375h2.906c0.219 0 0.438 0.172 0.469 0.391l0.359 2.391c0.406 0.125 0.797 0.297 1.172 0.484l1.844-1.391c0.094-0.078 0.203-0.109 0.313-0.109 0.125 0 0.234 0.047 0.328 0.125 0.406 0.375 2.25 2.063 2.25 2.5 0 0.109-0.047 0.203-0.109 0.297-0.453 0.609-0.922 1.172-1.359 1.781 0.203 0.422 0.391 0.844 0.531 1.281l2.375 0.359c0.219 0.047 0.375 0.25 0.375 0.469zM30 20.906v2.188c0 0.234-2.016 0.453-2.328 0.484-0.125 0.297-0.281 0.562-0.469 0.812 0.141 0.313 0.797 1.875 0.797 2.156 0 0.047-0.016 0.078-0.063 0.109-0.187 0.109-1.859 1.109-1.937 1.109-0.203 0-1.375-1.563-1.531-1.797-0.156 0.016-0.313 0.031-0.469 0.031s-0.313-0.016-0.469-0.031c-0.156 0.234-1.328 1.797-1.531 1.797-0.078 0-1.75-1-1.937-1.109-0.047-0.031-0.063-0.078-0.063-0.109 0-0.266 0.656-1.844 0.797-2.156-0.187-0.25-0.344-0.516-0.469-0.812-0.313-0.031-2.328-0.25-2.328-0.484v-2.188c0-0.234 2.016-0.453 2.328-0.484 0.125-0.281 0.281-0.562 0.469-0.812-0.141-0.313-0.797-1.891-0.797-2.156 0-0.031 0.016-0.078 0.063-0.109 0.187-0.094 1.859-1.094 1.937-1.094 0.203 0 1.375 1.547 1.531 1.781 0.156-0.016 0.313-0.031 0.469-0.031s0.313 0.016 0.469 0.031c0.438-0.609 0.906-1.219 1.437-1.75l0.094-0.031c0.078 0 1.75 0.984 1.937 1.094 0.047 0.031 0.063 0.078 0.063 0.109 0 0.281-0.656 1.844-0.797 2.156 0.187 0.25 0.344 0.531 0.469 0.812 0.313 0.031 2.328 0.25 2.328 0.484zM30 4.906v2.187c0 0.234-2.016 0.453-2.328 0.484-0.125 0.297-0.281 0.562-0.469 0.812 0.141 0.313 0.797 1.875 0.797 2.156 0 0.047-0.016 0.078-0.063 0.109-0.187 0.109-1.859 1.109-1.937 1.109-0.203 0-1.375-1.563-1.531-1.797-0.156 0.016-0.313 0.031-0.469 0.031s-0.313-0.016-0.469-0.031c-0.156 0.234-1.328 1.797-1.531 1.797-0.078 0-1.75-1-1.937-1.109-0.047-0.031-0.063-0.078-0.063-0.109 0-0.266 0.656-1.844 0.797-2.156-0.187-0.25-0.344-0.516-0.469-0.812-0.313-0.031-2.328-0.25-2.328-0.484v-2.188c0-0.234 2.016-0.453 2.328-0.484 0.125-0.281 0.281-0.562 0.469-0.812-0.141-0.313-0.797-1.891-0.797-2.156 0-0.031 0.016-0.078 0.063-0.109 0.187-0.094 1.859-1.094 1.937-1.094 0.203 0 1.375 1.547 1.531 1.781 0.156-0.016 0.313-0.031 0.469-0.031s0.313 0.016 0.469 0.031c0.438-0.609 0.906-1.219 1.437-1.75l0.094-0.031c0.078 0 1.75 0.984 1.937 1.094 0.047 0.031 0.063 0.078 0.063 0.109 0 0.281-0.656 1.844-0.797 2.156 0.187 0.25 0.344 0.531 0.469 0.812 0.313 0.031 2.328 0.25 2.328 0.484z"></path>
</symbol>
<symbol id="icon-diamond" viewBox="0 0 32 28">
<path d="M3.313 12l9.734 10.391-4.688-10.391h-5.047zM16 24.063l5.453-12.063h-10.906zM8.406 10l3.187-6h-4.094l-4.5 6h5.406zM18.953 22.391l9.734-10.391h-5.047zM10.672 10h10.656l-3.187-6h-4.281zM23.594 10h5.406l-4.5-6h-4.094zM25.797 2.406l6 8c0.297 0.375 0.266 0.922-0.063 1.281l-15 16c-0.187 0.203-0.453 0.313-0.734 0.313s-0.547-0.109-0.734-0.313l-15-16c-0.328-0.359-0.359-0.906-0.063-1.281l6-8c0.187-0.266 0.484-0.406 0.797-0.406h18c0.313 0 0.609 0.141 0.797 0.406z"></path>
</symbol>
<symbol id="icon-paperplane" viewBox="0 0 32 32">
<path d="M31.543 0.16c-0.166-0.107-0.355-0.16-0.543-0.16-0.193 0-0.387 0.055-0.555 0.168l-30 20c-0.309 0.205-0.479 0.566-0.439 0.936 0.038 0.369 0.278 0.688 0.623 0.824l7.824 3.131 3.679 6.438c0.176 0.309 0.503 0.5 0.857 0.504 0.004 0 0.007 0 0.011 0 0.351 0 0.677-0.186 0.857-0.486l2.077-3.463 9.695 3.877c0.119 0.048 0.244 0.071 0.371 0.071 0.17 0 0.338-0.043 0.49-0.129 0.264-0.148 0.445-0.408 0.496-0.707l5-30c0.065-0.393-0.109-0.787-0.443-1.004zM3.136 20.777l23.175-15.451-16.85 18.037c-0.089-0.053-0.168-0.123-0.266-0.162l-6.059-2.424zM10.189 24.066c-0.002-0.004-0.005-0.006-0.007-0.010l18.943-20.275-16.149 25.162-2.787-4.877zM25.217 29.609l-8.541-3.416c-0.203-0.080-0.414-0.107-0.623-0.119l13.152-20.388-3.988 23.923z"></path>
</symbol>
</defs>
</svg>
